<svg width="310" height="302" viewBox="0 0 310 302" fill="none" xmlns="http://www.w3.org/2000/svg">
<path d="M309.944 220.388C310.24 233.257 296.155 248.533 281.794 248.414C265.796 248.276 252.756 235.526 252.677 219.855C252.5 187.743 252.658 155.612 252.52 123.48C252.421 104.079 235.278 87.125 216.005 88.9408C196.101 90.4605 184.048 106.132 184.876 128.395C184.857 142.882 184.225 158.671 184.58 173.158C184.896 186.046 171.482 200.04 157.121 199.921C141.122 199.783 128.063 187.013 127.984 171.362C127.728 164.789 127.708 160.526 127.747 151.191C127.807 139.329 127.353 127.447 128.102 115.625C133.547 36.8355 233.72 2.73027 286.213 62.0197C300.85 77.2961 309.53 96.3224 309.688 118.072C309.925 152.178 309.136 186.303 309.944 220.388Z" fill="#D8D8D8"/>
<path d="M0.805291 31.3092C-1.44357 14.6316 15.8174 0.69738 29.4486 0.993432C46.0389 1.3487 60.6762 13.9211 60.6565 29.454C60.6367 48.3619 50.0829 60.2237 33.3348 60.8355C12.957 61.5855 1.06173 50.3355 0.825007 31.3092H0.805291Z" fill="#D8D8D8"/>
<path d="M99.4196 269.75H99.3999C99.3407 268.625 99.2618 267.5 99.2026 266.375C99.2618 267.5 99.3407 268.625 99.4196 269.75Z" fill="#D8D8D8"/>
<path d="M2.14667 113.158C1.85077 100.289 15.9357 85.0132 30.2968 85.1316C46.2953 85.2698 59.3347 98.0198 59.4136 113.691C59.5912 145.803 59.4334 177.934 59.5714 210.066C59.6701 229.467 76.8127 246.421 96.0858 244.605C115.99 243.086 128.043 227.414 127.215 205.151C127.234 190.664 128.063 176.829 127.708 162.342C127.392 149.454 140.609 133.507 154.97 133.625C170.969 133.763 184.028 146.533 184.107 162.184C184.363 168.757 184.324 177.263 184.344 182.355C184.383 194.217 184.738 206.099 183.988 217.921C178.544 296.711 78.3711 330.816 25.878 271.526C11.2407 256.25 2.56093 237.224 2.40311 215.474C2.16639 181.368 2.95547 147.243 2.14667 113.158Z" fill="#D8D8D8"/>
</svg>
