<svg width="288" height="148" viewBox="0 0 288 148" fill="none" xmlns="http://www.w3.org/2000/svg">
<rect width="288" height="148" fill="white"/>
<path d="M195.747 105.021C195.855 109.723 190.72 115.306 185.484 115.263C179.652 115.212 174.899 110.553 174.87 104.826C174.805 93.0915 174.863 81.3496 174.812 69.6077C174.776 62.5178 168.527 56.3223 161.501 56.9858C154.244 57.5412 149.85 63.2679 150.152 71.4036C150.145 76.6975 149.915 82.4675 150.045 87.7615C150.16 92.4712 145.269 97.5849 140.034 97.5416C134.202 97.4911 129.441 92.8246 129.412 87.1051C129.318 84.7034 129.311 83.1455 129.326 79.734C129.347 75.3993 129.182 71.0574 129.455 66.7371C131.44 37.9449 167.959 25.4817 187.095 47.148C192.432 52.7305 195.596 59.6833 195.653 67.6314C195.74 80.0946 195.452 92.565 195.747 105.021Z" fill="#D8D8D8"/>
<path d="M83.048 35.9253C82.2282 29.8307 88.5208 24.7387 93.4901 24.8469C99.5382 24.9767 104.874 29.5711 104.867 35.2473C104.86 42.1568 101.013 46.4915 94.9069 46.7151C87.478 46.9892 83.1415 42.8781 83.0552 35.9253H83.048Z" fill="#D8D8D8"/>
<path d="M118.999 123.059H118.991C118.97 122.648 118.941 122.237 118.919 121.826C118.941 122.237 118.97 122.648 118.999 123.059V123.059Z" fill="#D8D8D8"/>
<path d="M83.537 65.8355C83.4292 61.1329 88.5639 55.5505 93.7994 55.5938C99.6317 55.6442 104.385 60.3035 104.414 66.0302C104.479 77.7649 104.421 89.5068 104.472 101.249C104.508 108.339 110.757 114.534 117.783 113.871C125.039 113.315 129.434 107.588 129.131 99.4528C129.139 94.1589 129.441 89.1029 129.311 83.809C129.196 79.0992 134.015 73.2715 139.25 73.3148C145.082 73.3653 149.843 78.0318 149.872 83.7513C149.965 86.153 149.951 89.2616 149.958 91.1224C149.973 95.4571 150.102 99.799 149.829 104.119C147.844 132.911 111.325 145.375 92.1885 123.708C86.8523 118.126 83.6881 111.173 83.6305 103.225C83.5442 90.7618 83.8319 78.2914 83.537 65.8355V65.8355Z" fill="#D8D8D8"/>
<path d="M5.76044 20.8586C5.76044 15.8387 8.2631 13.3215 13.2756 13.3215H22.1572C27.1625 13.3215 29.6723 15.8387 29.6723 20.8586V90.7475H62.0559C67.0612 90.7475 69.5711 93.2646 69.5711 98.2845V103.766C69.5711 108.793 67.0612 111.303 62.0559 111.303H13.2756C8.2631 111.303 5.76044 108.793 5.76044 103.766V20.8586V20.8586Z" fill="#D8D8D8"/>
<path d="M213.553 20.8586C213.553 15.8387 216.056 13.3215 221.068 13.3215H229.677C234.682 13.3215 237.192 15.8387 237.192 20.8586V64.0252H243.887L254.818 45.7993C256.731 42.4167 259.687 40.7289 263.7 40.7289H272.718C275.81 40.7289 277.817 41.6017 278.73 43.3326C279.643 45.0709 279.277 47.2202 277.637 49.7734L262.88 72.7956V73.0697L280.78 102.259C282.326 104.913 282.642 107.077 281.736 108.764C280.823 110.459 278.816 111.303 275.724 111.303H265.476C261.557 111.303 258.594 109.522 256.595 105.959L244.57 83.8956H237.192V103.766C237.192 108.793 234.682 111.303 229.677 111.303H221.068C216.056 111.303 213.553 108.793 213.553 103.766V20.8586V20.8586Z" fill="#D8D8D8"/>
</svg>
