<svg width="1440" height="896" viewBox="0 0 1440 896" fill="none" xmlns="http://www.w3.org/2000/svg">
<rect width="1440" height="896" fill="#F0F3DC"/>
<g clip-path="url(#clip0_329_1523)">
<rect width="1112.37" height="880.357" transform="translate(0 15.6431)" fill="#F0F3DC"/>
<path d="M531.653 231.799C533.875 230.035 531.136 227.065 528.745 227.19C528.298 229.164 530.906 229.567 531.653 231.799Z" fill="#B7E1D3"/>
<path d="M524.165 230.913C526.065 230.612 526.806 234.745 528.674 234.628C528.755 231.602 524.778 227.993 524.165 230.913Z" fill="#B7E1D3"/>
<path d="M527.523 217.363C526.475 215.906 522.941 212.822 523.521 216.146C524.551 217.453 526.824 217.836 527.523 217.363Z" fill="#B7E1D3"/>
<path d="M528.488 210.205C527.98 209.408 527.504 208.325 526.936 208.048C526.602 207.978 526.25 207.991 525.926 208.087C525.601 208.182 525.319 208.354 525.116 208.581C524.912 208.809 524.797 209.08 524.785 209.362C524.773 209.643 524.865 209.921 525.048 210.159C526.193 210.224 527.341 210.239 528.488 210.205Z" fill="#B7E1D3"/>
<path d="M535.669 257.488C535.536 256.673 535.836 256.171 535.679 255.337C535.204 255.31 534.991 254.609 534.35 255.016C535.579 255.815 534.646 257.148 535.669 257.488Z" fill="#B7E1D3"/>
<path d="M532.381 236.096C534.226 234.94 536.577 234.106 536.041 231.452C534.967 231.094 533.575 232.027 532.363 232.234C532.972 233.473 532.978 234.854 532.381 236.096Z" fill="#B7E1D3"/>
<path d="M526.531 250.737C526.522 251.869 527.232 253.502 527.402 254.757C529.213 253.843 529.845 255.889 531.385 255.675C530.763 253.583 528.509 251.071 526.531 250.737Z" fill="#B7E1D3"/>
<path d="M533.576 243.391C532.689 243.585 532.104 242.851 531.434 242.385C531.819 244.236 533.858 244.944 533.576 243.391Z" fill="#B7E1D3"/>
<path d="M523.592 207.309C522.247 203.017 518.302 205.873 519.992 208.758C521.617 209.791 522.384 208.06 523.592 207.309Z" fill="#B7E1D3"/>
<path d="M511.413 201.117C512.012 200.152 511.74 198.789 512.851 198.045C512.155 197.728 511.954 195.226 510.488 194.583C508.354 195.427 509.609 197.774 508.786 199.207C509.67 199.727 510.446 201.519 511.413 201.117Z" fill="#B7E1D3"/>
<path d="M513.085 184.289C512.826 183.798 512.413 183.371 511.888 183.051C511.772 183.115 511.675 183.2 511.606 183.299C511.537 183.398 511.496 183.51 511.488 183.624C512.021 184.294 512.554 184.516 513.085 184.289Z" fill="#B7E1D3"/>
<path d="M516.878 188.292C516.389 186.81 514.783 186.021 513.672 186.57C513.792 187.315 514.128 188.026 514.653 188.643C515.53 188.923 516.532 188.928 516.878 188.292Z" fill="#B7E1D3"/>
<path d="M504.208 190.927C506.334 191.258 504.87 188.328 507.246 188.695C506.779 186.318 508.848 184.895 504.784 181.229C503.885 181.909 503.957 182.955 503.853 183.931C506.568 187.2 501.473 187.558 504.208 190.927Z" fill="#B7E1D3"/>
<path d="M537.757 267.117C537.481 265.853 537.059 264.614 536.497 263.415C534.842 263.481 536.021 268.087 537.757 267.117Z" fill="#B7E1D3"/>
<path d="M502.754 197.551C502.221 197.812 501.307 197.924 502.297 198.796C502.479 198.394 503.402 198.286 502.754 197.551Z" fill="#B7E1D3"/>
<path d="M516.55 235.17C517.542 235.175 517.553 234.177 516.929 233.819C516.38 234.027 516.254 234.477 516.55 235.17Z" fill="#B7E1D3"/>
<path d="M514.444 231.205C515.256 231.205 514.935 230.565 514.94 230.108L514.066 230.396L514.444 231.205Z" fill="#B7E1D3"/>
<path d="M514.419 221.766C516.302 225.167 517.212 228.737 520.405 229.892C520.273 229.117 520.192 228.373 520.106 227.623C520.003 226.88 519.865 226.141 519.678 225.363C518.873 225.352 518.013 225.6 517.435 224.535C517.642 223.299 518.249 222.27 517.295 220.397C516.159 220.611 514.662 220.663 514.419 221.766Z" fill="#B7E1D3"/>
<path d="M513.804 198.662C515.182 200.281 514.528 200.977 515.895 202.595C519.902 203.638 516.147 196.368 513.804 198.662Z" fill="#B7E1D3"/>
<path d="M515.152 193.453C514.333 193.837 513.722 194.313 514.635 195.474C515.868 195.902 515.764 194.46 515.152 193.453Z" fill="#B7E1D3"/>
<path d="M533.113 306.435C533.18 305.738 533.969 305.779 533.661 304.698C532.54 304.539 532.277 305.994 533.113 306.435Z" fill="#B7E1D3"/>
<path d="M533.556 290.987C532.893 290.879 532.794 289.867 531.978 290.01C531.961 290.235 531.833 290.358 531.553 290.348C531.541 290.927 531.71 291.5 532.044 292.011C532.642 291.775 533.161 291.423 533.556 290.987Z" fill="#B7E1D3"/>
<path d="M535.279 286.744C533.545 286.607 533.249 287.793 532.461 288.517C533.557 288.363 534.684 288.543 535.629 289.023C535.86 288.254 535.735 287.443 535.279 286.744Z" fill="#B7E1D3"/>
<path d="M536.3 299.938C536.713 298.203 536.456 294.663 534.576 294.618C533.617 296.307 534.342 297.629 534.892 300.047L536.3 299.938Z" fill="#B7E1D3"/>
<path d="M536.763 312.787L536.507 309.946C535.112 310.204 534.691 309.09 533.577 308.96C534.838 309.95 534.645 312.99 536.763 312.787Z" fill="#B7E1D3"/>
<path d="M531.597 302.857C532.174 301.941 532.563 300.954 532.749 299.936C532.076 300.063 531.946 299.359 531.264 299.489C531.169 300.295 530.498 302.399 531.597 302.857Z" fill="#B7E1D3"/>
<path d="M554.626 287.187C554.968 286.899 555.206 286.539 555.313 286.147C555.421 285.756 555.393 285.347 555.234 284.967C554.265 284.405 552.734 285.16 552.289 285.925C553.098 286.292 553.522 287.328 554.626 287.187Z" fill="#B7E1D3"/>
<path d="M541.625 238.675C541.203 237.393 541.441 236.556 540.995 235.254C540.394 235.203 540.002 234.447 539.402 234.396C539.009 235.342 539.602 236.945 540.389 238.687C540.876 238.42 541.086 239.091 541.625 238.675Z" fill="#B7E1D3"/>
<path d="M540.515 304.533C541.642 304.639 542.08 305.748 543.24 305.813C544.341 302.278 539.84 304.252 540.377 300.485C537.907 300.316 538.962 305.045 536.697 304.21C536.683 305.415 537.255 305.776 537.403 306.744C539.66 307.284 539.231 305.019 540.515 304.533Z" fill="#B7E1D3"/>
<path d="M547.963 253.266C549.196 253.538 551.553 252.924 550.549 250.762C549.709 250.403 549.092 251.802 547.692 251.725C548.161 252.529 547.625 252.569 547.963 253.266Z" fill="#B7E1D3"/>
<path d="M556.782 282.928C557.002 281.789 556.315 281.009 555.41 280.926C555.153 281.129 554.979 281.392 554.91 281.679C554.841 281.965 554.881 282.262 555.024 282.53C555.822 282.238 556.226 282.733 556.782 282.928Z" fill="#B7E1D3"/>
<path d="M541.916 280.582C542.543 281.163 541.969 282.018 542.469 283.2C543.596 283.333 543.443 282.327 544.445 282.347C544.589 281.852 544.562 281.334 544.367 280.851C547.917 278.661 545.489 274.708 542.619 272.652C541.96 272.686 541.332 272.894 540.829 273.243C541.215 274.659 544.306 277.984 541.422 278.257C541.404 277.753 541.217 277.263 540.882 276.839C539.46 277.485 539.318 278.866 540.054 280.839C540.646 280.48 541.212 279.598 541.916 280.582Z" fill="#B7E1D3"/>
<path d="M540.031 285.287C540.09 284.601 540.026 283.91 539.84 283.239C539.217 283.006 538.537 282.892 537.852 282.906C538.178 284.434 538.929 285.179 540.031 285.287Z" fill="#B7E1D3"/>
<path d="M543.335 270.708C542.484 269.139 543.667 268.414 542.686 267.451C542.04 267.825 541.654 270.516 543.335 270.708Z" fill="#B7E1D3"/>
<path d="M535.51 291.355C535.799 292.776 536.482 293.566 537.538 293.758C537.332 292.168 538.249 291.647 538.189 290.198C537.108 289.552 536.689 291.311 535.51 291.355Z" fill="#B7E1D3"/>
<path d="M546.97 257.616L547.886 257.428C547.584 256.921 547.358 256.219 546.934 256.038C547.023 256.622 546.694 256.888 546.97 257.616Z" fill="#B7E1D3"/>
<path d="M542.639 309.636C541.172 309.651 540.816 310.836 541.014 312.607C542.513 313.074 543.93 311.674 542.639 309.636Z" fill="#B7E1D3"/>
<path d="M537.694 288.501C538.274 288.475 538.826 288.417 539.051 288.057C538.869 287.391 538.62 286.842 538.129 286.698C538.412 287.699 537.412 287.5 537.694 288.501Z" fill="#B7E1D3"/>
<path d="M541.522 293.366C541.718 292.558 541.911 291.762 542.108 290.952C541.312 290.937 540.942 290.221 539.913 290.597C539.822 291.136 539.926 291.685 540.212 292.177C540.498 292.669 540.953 293.082 541.522 293.366Z" fill="#B7E1D3"/>
<path d="M542.42 284.102C541.65 285.22 540.298 285.83 539.898 287.367C540.432 287.684 540.672 288.496 541.29 288.68C541.875 288.323 542.228 287.751 543.03 287.598C543.9 287.839 544.256 288.959 545.358 288.823C545.322 285.657 543.527 285.577 542.42 284.102Z" fill="#B7E1D3"/>
<path d="M559.451 319.383C558.304 318.888 558.654 321.319 559.501 320.893L559.451 319.383Z" fill="#B7E1D3"/>
<path d="M552.074 325.173C552.041 325.734 552.36 325.825 552.347 326.355C553.071 326.364 553.906 326.524 553.737 325.458C553.389 325.009 552.562 324.533 552.074 325.173Z" fill="#B7E1D3"/>
<path d="M556.753 340.94C557.151 340.724 557.21 338.492 556.825 338.26C556.759 338.887 555.687 340.771 556.753 340.94Z" fill="#B7E1D3"/>
<path d="M551.416 312.465C551.106 312.992 550.512 314.939 551.734 314.823C552.62 314.531 552.034 312.584 551.416 312.465Z" fill="#B7E1D3"/>
<path d="M550.674 329.007C550.55 330.389 550.97 331.123 552.044 331.068C552.998 329.76 551.533 328.126 550.674 329.007Z" fill="#B7E1D3"/>
<path d="M545.914 330.736C545.81 332.544 545.991 334.018 547.488 333.949C548.949 333.318 548.102 331.199 547.586 329.874C546.798 329.87 546.756 330.816 545.914 330.736Z" fill="#B7E1D3"/>
<path d="M528.177 312.039C527.303 312.235 527.22 313.235 526.404 313.487C527.755 315.057 529.086 316.638 530.399 318.227C530.544 318.273 530.689 318.324 530.832 318.356C530.803 318.472 530.789 318.571 530.768 318.678C531.512 319.583 532.26 320.484 532.99 321.396C533.492 321.33 533.986 321.223 534.464 321.079C534.475 321.643 534.334 322.201 534.05 322.715C535.021 323.933 535.949 325.096 536.856 326.226C537.106 325.959 537.228 325.626 537.199 325.291C536.332 323.93 536.301 320.731 538.733 321.568C538.585 319.567 539.724 320.267 540.567 319.812C540.087 317.065 538.912 313.878 536.157 315.083C535.627 317.156 537.088 317.363 537.243 319.316C537.018 319.698 537.054 320.38 536.572 320.467C535.331 320.665 534.57 320.257 534.4 319.1C534.702 317.569 535.641 315.371 533.786 314.887C533.627 316.153 533.476 317.432 532.219 317.472C531.367 316.797 531.105 315.382 530.691 314.16C530.303 312.942 529.61 311.919 528.177 312.039Z" fill="#B7E1D3"/>
<path d="M533.411 281.16C532.944 280.994 532.523 280.754 532.171 280.454C531.819 280.154 531.545 279.799 531.363 279.411C531.346 278.859 531.712 278.631 531.524 277.932C530.787 277.854 530.373 277.177 529.662 277.053C530.444 279.765 527.893 280.479 526.076 281.603C526.234 280.029 525.39 279.029 525.134 277.172C524.764 276.861 524.322 276.615 523.833 276.447C523.344 276.28 522.818 276.194 522.288 276.197C522.11 277.898 521.363 280.212 519.448 279.735C519.155 276.83 521.61 276.048 522.202 273.936C522.954 273.83 523.727 273.9 524.433 274.137C523.741 272.834 523.359 271.436 523.307 270.018C524.533 269.168 525.876 268.435 527.307 267.835C527.022 267.07 525.715 265.944 526.618 265.326C528.377 265.946 530.402 267.674 531.755 265.526C531.312 263.42 530.569 260.797 530.967 258.794C529.829 256.458 526.611 257.092 525.1 257.372C525.824 259.136 527.561 258.452 528.275 260.263C527.861 261.38 526.433 260.05 526.217 260.694C528.492 267.111 521.355 262.073 520.133 259.349C520.049 257.904 521.891 257.785 522.452 256.779C520.817 255.132 519.804 252.557 520.598 250.692C521.483 250.922 522.437 250.898 523.303 250.625C523.542 249.626 523.553 248.599 523.335 247.597C522.059 246.938 520.604 246.812 519.772 244.907C520.295 244.224 521.818 244.176 522.462 243.567C523.468 243.398 523.932 244.849 524.92 244.742C524.627 243.799 525.078 243.337 524.37 242.124C523.476 241.439 522.495 241.036 521.586 240.419C520.456 239.633 519.608 238.612 519.132 237.464C518.368 237.011 518.35 238.001 517.357 237.991C515.017 236.748 513.516 232.601 511.123 231.673C509.881 228.618 511.918 227.524 514.65 228.016C512.931 223.722 509.865 225.53 507.809 222.903C507.739 221.421 510.445 222.044 510.684 221.534C509.446 220.857 508.584 219.809 508.285 218.617C508.458 217.961 509.746 217.841 510.483 217.455C510.951 218.015 511.645 218.423 512.444 218.607C513.243 218.791 514.096 218.74 514.853 218.462C515.635 218.27 516.316 217.869 516.783 217.322C517.251 216.775 517.478 216.115 517.428 215.45C515.886 213.237 513.591 215.994 511.827 215.315C512.39 216.244 511.774 217.84 510.596 216.767C509.573 215.585 510.915 215.555 510.347 214.597C508.692 214.56 506.969 214.965 505.431 214.293C503.701 211.77 506.141 212.279 505.818 210.567C506.724 210.669 507.583 211.069 508.611 210.392C508.576 209.651 508.45 208.916 508.237 208.196C508.052 207.679 507.768 207.189 507.397 206.744C506.494 205.83 505.478 204.996 504.364 204.255C503.111 205.57 502.625 205.754 501.216 205.985C502.376 207.634 502.437 208.805 501.413 209.502C501.028 209.297 500.7 209.028 500.451 208.713C500.202 208.398 500.037 208.043 499.966 207.672C499.896 207.302 499.922 206.923 500.043 206.561C500.164 206.199 500.376 205.862 500.667 205.572C498.572 202.891 496.323 202.63 494.093 200.009C492.106 199.688 492.676 201.008 491.224 201.72C490.034 201.821 488.925 200.943 487.789 200.433C486.056 202.047 483.261 200.696 482.648 199.081C481.649 196.45 486.963 196.303 488.668 199.011C490.4 198.61 492.238 198.632 493.955 199.074C493.902 198.348 495.46 198.239 494.845 197.296C494.832 196.091 493.087 196.102 492.427 194.773C494.268 194.287 496.541 192.693 493.538 190.766C490.8 191.828 490.879 193.876 489.66 195.505C488.721 195.16 489.033 194.361 488.167 193.567C487.376 193.678 486.579 194.049 485.812 193.109C485.644 192.759 485.614 192.376 485.725 192.011C485.836 191.647 486.084 191.32 486.433 191.076C485.788 190.389 485.267 189.629 484.888 188.821C484.586 188.978 484.245 189.078 483.89 189.113C483.534 189.148 483.174 189.117 482.835 189.023C482.497 188.928 482.189 188.772 481.934 188.567C481.679 188.362 481.485 188.112 481.364 187.837C480.773 186.696 480.545 185.452 480.701 184.22C478.299 183.735 478.099 180.983 476.972 179.345C477.516 178.977 477.901 178.476 478.07 177.916C478.239 177.356 478.184 176.766 477.911 176.234C476.851 175.455 475.858 175.376 474.762 174.199C475.729 173.232 477.23 173.505 478.876 174.328C479.767 174.791 480.61 175.311 481.398 175.884C482.226 176.485 483.007 177.157 483.74 177.773C483.636 177.917 483.696 178.106 483.972 178.365C484.076 179.209 481.663 179.269 482.499 180.325C483.886 180.53 485.32 181.577 486.721 181.809C487.831 180.956 486.053 179.191 487.532 178.443C485.088 176.072 486.601 174.868 484.739 172.732C482.67 173.68 480.062 170.621 479.726 168.747C477.322 169.142 475.045 170.419 472.608 170.413C471.25 170.001 472.052 169.046 470.91 168.168C468.268 168.979 464.407 165.288 466.661 163.481C467.966 164.623 469.383 165.777 470.975 165.838C471.153 165.332 471.515 163.812 472.778 164.592C473.484 165.187 473.946 165.948 474.097 166.767C475.038 166.842 476.018 167.173 476.902 166.793C476.558 165.358 476.103 163.896 476.674 162.683C476.087 162.037 475.391 161.462 474.605 160.977C473.179 161.475 474.469 162.641 473.157 163.164C471.886 163.117 470.38 161.431 469.146 161.7C467.567 163.289 464.595 163.971 462.45 162.267C460.722 160.923 461.067 158.06 457.844 157.066C457.375 158.801 455.435 159.372 453.526 159.249C454.199 160.035 454.952 160.772 455.777 161.454C456.462 162.048 457.206 162.595 458 163.09C459.412 163.926 460.884 164.693 462.408 165.386C462.083 165.913 460.245 166.333 459.287 166.881C460.032 167.483 461.953 167.591 461.534 168.661C460.801 168.552 460.044 168.641 459.378 168.913C458.711 169.185 458.171 169.627 457.839 170.171C453.453 168.06 452.229 172.784 448.554 172.141C448.397 171.89 448.32 171.61 448.331 171.328C448.343 171.047 448.442 170.772 448.62 170.53C448.797 170.288 449.048 170.087 449.347 169.946C449.647 169.805 449.985 169.728 450.331 169.724C450.529 167.991 449.089 165.117 451.875 164.8C451.329 163.961 450.709 163.155 450.02 162.388C450.064 163.505 449.042 163.526 448.042 164.322C446.292 163.402 443.554 162.905 443.297 161.163C443.677 160.666 444.19 160.246 444.798 159.935C445.4 160.015 446.158 160.836 446.867 161.396C448.522 160.837 450.375 161.227 452.143 161.124C451.966 159.917 450.436 158.538 448.766 157.183C447.072 155.846 445.19 154.571 444.397 153.442C444.018 151.346 446.673 150.536 447.893 150.036C447.443 148.647 446.519 147.39 445.231 146.412C445.029 145.325 445.251 144.215 445.866 143.238C445.268 142.044 444.515 140.907 443.619 139.845C442.683 138.761 441.827 137.633 441.055 136.467C440.244 136.322 439.358 135.96 438.759 136.387C438.386 137.275 440.67 138.44 440.021 139.294C438.965 139.613 437.676 139.249 436.09 138.077C435.792 139.394 438.676 140.589 440.428 141.605C440.586 142.432 441.092 143.294 440.221 144.01C441.593 144.658 444.452 146.475 443.691 147.357C441.716 147.051 440.341 145.926 438.939 144.69C437.922 143.762 436.797 142.916 435.58 142.166C435.649 144.526 435.729 146.886 435.821 149.245C436.431 149.583 437.049 149.907 437.683 150.196C439.926 151.196 443.211 150.793 443.733 153.189C442.226 154.36 440.49 154.321 438.386 153.319C438.583 152.971 438.24 152.559 438.674 152.233C437.803 151.971 436.728 151.003 435.881 150.819C435.929 151.987 435.969 153.154 436.022 154.321C437.077 154.815 437.878 155.821 437.067 156.516C436.917 156.567 436.757 156.592 436.595 156.589C436.433 156.585 436.274 156.553 436.128 156.496C436.185 157.698 436.245 158.901 436.307 160.103C436.902 160.063 437.495 160.204 437.97 160.498C438.446 160.793 438.771 161.22 438.884 161.699C438.626 162.021 438.245 162.265 437.8 162.394C437.355 162.522 436.871 162.527 436.422 162.408C436.805 169.522 437.253 176.634 437.767 183.743C437.838 183.849 437.888 183.963 437.913 184.081C437.877 184.115 437.838 184.147 437.798 184.177C438.261 190.73 438.752 197.28 439.271 203.828C439.287 204.025 439.271 204.217 439.271 204.413C440.261 205.545 440.997 206.812 441.443 208.155C445.985 221.381 453.325 233.858 463.132 245.02C464.231 246.034 465.294 247.016 466.294 247.954C479.07 260.026 491.002 272.676 502.033 285.845C505.162 289.546 508.389 293.191 511.636 296.827C513.252 296.259 513.394 297.856 514.416 298.186C515.25 298.008 514.786 296.671 516.132 296.945C516.387 297.361 516.534 297.815 516.564 298.279C516.593 298.743 516.504 299.207 516.302 299.641C515.781 299.934 515.157 300.08 514.525 300.057C516.598 302.368 518.667 304.682 520.732 306.997C520.762 306.874 520.792 306.757 520.822 306.649C522.052 306.893 522.191 308.022 522.477 308.968C522.865 309.408 523.25 309.851 523.636 310.292C523.679 310.304 523.723 310.313 523.768 310.321C526.058 310.581 525.06 304.917 528.201 307.022C528.692 307.595 528.548 309.048 528.718 310.066C529.638 309.837 529.732 310.756 530.654 310.528C530.642 307.614 530.215 305.578 530.929 303.191C530.188 302.13 528.696 302.143 527.48 301.764C527.324 303.141 525.55 305.409 524.314 303.389C524.054 302.382 524.608 302.18 524.348 301.172C523.374 300.015 521.737 299.05 522.557 296.892C521.955 295.905 520.725 295.886 520.695 294.033C520.727 293.806 520.846 293.594 521.034 293.425C521.223 293.257 521.471 293.141 521.745 293.095C522.802 295.05 525.556 298.909 527.359 295.606C527.937 295.115 526.294 295.242 526.634 293.988C526.387 293.125 527.782 293.768 527.403 292.781C526.989 291.989 525.89 289.63 526.811 288.897C528.535 289.881 529.85 288.121 531.358 287.509C530.705 284.879 531.991 284.047 531.908 281.955C532.386 281.67 533.827 282.21 533.411 281.16ZM439.683 168.638C440.727 168.867 441.04 170.008 441.784 170.681C442.089 170.65 442.398 170.67 442.694 170.739C442.99 170.808 443.265 170.925 443.505 171.082C443.744 171.24 443.942 171.435 444.087 171.656C444.232 171.877 444.321 172.12 444.349 172.37C443.545 173.028 442.538 172.181 441.791 173.222C441.017 171.327 438.768 170.268 439.683 168.638ZM444.263 176.021C443.332 177.041 441.677 176.006 441.057 174.853C441.227 172.873 444.74 174.572 444.263 176.025V176.021ZM444.367 180.143C442.738 181.247 439.962 178.108 442.119 177.247C443.389 177.742 444.894 179.438 444.365 180.143H444.367ZM447.599 175.005C447.045 174.854 446.18 174.647 446.105 173.949C446.509 173.595 446.997 173.859 447.423 173.701C447.961 174.22 448.017 174.655 447.593 175.005H447.599ZM450.864 192.127C451.294 191.952 451.766 191.858 452.246 191.852C452.725 191.846 453.201 191.927 453.637 192.09C454.074 192.253 454.46 192.493 454.768 192.794C455.075 193.094 455.297 193.447 455.416 193.827C453.904 194.47 452.429 193.854 450.862 192.127H450.864ZM455.221 181.977C454.408 180.849 455.399 180.091 455.349 179.114C455.746 178.964 456.181 178.891 456.618 178.9C457.056 178.909 457.486 179 457.874 179.165C457.685 179.755 457.353 180.308 456.897 180.791C456.441 181.275 455.87 181.678 455.219 181.977H455.221ZM457.88 185.367C457.259 184.678 457.415 184.169 458.19 183.808C458.604 184.123 458.892 184.532 459.018 184.982C458.887 185.123 458.712 185.233 458.512 185.3C458.311 185.368 458.093 185.391 457.878 185.367H457.88ZM481.44 202.287C480.472 202.317 479.275 200.724 478.957 199.674C480.626 198.403 482.919 201.289 481.438 202.287H481.44ZM479.445 188.75C480.474 190.008 480.462 190.922 479.409 191.494C478.386 190.886 478.495 190.199 477.895 189.286C478.202 188.711 478.687 188.769 479.443 188.75H479.445ZM468.199 175.172C467.145 175.738 466.011 175.123 464.729 173.84C464.463 171.381 469.038 173.398 468.197 175.172H468.199ZM468.481 181.409C468.125 181.924 467.702 181.409 467.334 181.782C466.39 180.972 465.606 180.048 465.011 179.042C466.375 177.192 468.945 180.27 468.479 181.409H468.481ZM462.116 168.619C463.887 168.387 464.422 167.363 466.06 167.352C466.921 168.85 465.107 170.777 463.505 170.261C462.944 169.773 462.475 169.22 462.114 168.619H462.116ZM462.723 186.042C463.034 186.441 462.862 186.727 462.378 186.933L461.768 186.295C462.076 185.961 462.403 186.131 462.721 186.042H462.723ZM466.965 203.392C465.917 203.462 464.611 201.782 464.651 200.885C466.547 199.024 468.35 202.642 466.964 203.392H466.965ZM466.456 192.485C465.835 192.809 466.513 193.486 465.489 193.698C464.213 193.017 462.936 193.497 461.672 192.009C463.098 189.448 466.638 188.223 469.545 193.341C468.508 194.528 467.482 192.972 466.455 192.485H466.456ZM471.318 183.157C470.31 183.978 469.308 183.966 468.171 182.656C468.469 180.813 472.607 182.258 473.486 180.064C473.542 178.803 472.205 177.165 473.37 176.184C475.861 177.029 475.177 179.006 474.263 179.939C476.308 182.153 475.351 183.54 473.88 184.739C473.031 184.536 472.158 183.466 471.315 183.157H471.318ZM470.521 208.041C470.107 207.229 470.143 206.563 471.101 206.213C471.876 207.127 471.569 208.27 470.518 208.041H470.521ZM473.529 185.985C474.039 185.721 474.579 186.521 475.112 187.119C474.742 187.288 474.951 187.635 474.541 187.795C474.133 187.643 473.806 187.377 473.62 187.044C473.434 186.712 473.4 186.335 473.526 185.985H473.529ZM475.466 211.739C474.395 212.091 472.697 210.863 472.452 209.53C473.599 208.879 476.279 210.505 475.463 211.739H475.466ZM478.191 199.423C477.428 198.994 476.898 198.341 476.712 197.6C477.186 197.068 477.627 197.399 478.075 197.532C478.223 198.199 479.01 199.073 478.187 199.423H478.191ZM479.543 215.013C479.277 215.207 478.931 215.31 478.575 215.301C478.219 215.293 477.881 215.174 477.629 214.968C476.677 213.446 478.9 213.15 479.54 215.013H479.543ZM478.366 229.219C477.928 229.11 477.543 228.89 477.269 228.59C476.994 228.29 476.844 227.927 476.84 227.553C477.46 227.338 478.154 226.877 478.678 227.11C479.515 228.21 479.031 228.754 478.363 229.219H478.366ZM480.818 211.696C479.809 211.882 478.758 211.839 477.777 211.571C477.156 210.4 478.132 209.882 478.101 208.96C478.904 208.512 479.756 208.876 480.339 209.511C480.62 209.82 480.809 210.179 480.891 210.558C480.974 210.937 480.948 211.327 480.815 211.696H480.818ZM480.911 206.05C479.945 205.133 480.911 204.389 481.44 204.53C482.412 205.45 481.435 206.187 480.908 206.05H480.911ZM517.196 239.265C519.117 239.076 520.964 244.264 518.217 244.123C516.543 243.133 515.838 240.01 517.193 239.265H517.196ZM512.824 236.928C513.497 236.694 513.859 237.529 514.229 238.319C513.864 239.021 513.525 239.12 512.678 238.784C512.326 237.938 512.094 237.161 512.821 236.928H512.824ZM511.229 242.203C512.87 241.71 514.069 242.498 515.558 242.457C516.259 246.088 519.445 246.008 520.176 249.008C518.929 249.82 518.513 248.306 517.608 248.178C517.114 248.511 516.513 248.721 515.877 248.783C515.24 248.844 514.596 248.755 514.02 248.525C513.777 245.787 510.653 245.067 511.226 242.203H511.229ZM512.16 246.373C512.781 247.618 511.162 247.487 510.697 247.063C510.452 246.13 511.614 246.365 512.158 246.373H512.16ZM508.247 272.451C509.074 272.546 509.597 273.211 509.437 274.156C508.875 274.287 508.337 274.387 507.981 274.135C507.455 273.134 508.021 272.916 508.245 272.451H508.247ZM506.362 230.821C507.914 232.221 507.02 233.961 506.259 234.776C504.801 233.588 506.502 232.612 505.489 231.116L506.362 230.821ZM501.542 219.643C501.904 220.3 501.822 220.748 501.295 220.986C500.924 220.742 500.641 220.421 500.476 220.057C500.488 219.961 500.531 219.869 500.599 219.79C500.667 219.711 500.759 219.648 500.865 219.606C500.972 219.565 501.09 219.546 501.208 219.552C501.326 219.558 501.44 219.589 501.539 219.641L501.542 219.643ZM499.083 229.719C498.419 229.186 498.034 228.464 498.008 227.704C499.648 226.787 500.473 229.323 499.081 229.718L499.083 229.719ZM494.405 205.464C495.129 206.18 493.955 206.115 494.456 206.738C495.337 207.016 494.85 205.835 495.898 206.084C496.674 206.723 497.509 206.879 498.195 208.31C497.057 209.004 496.113 208.17 495.122 207.733C494.983 207.855 495.079 208.075 494.871 208.167C495.478 209.727 497.622 211.619 496.643 212.827C496.517 212.783 496.381 212.762 496.243 212.765C496.106 212.769 495.972 212.797 495.849 212.847C495.082 211.782 494.154 210.799 493.087 209.923C492.874 208.471 493.355 207.299 492.259 205.476C493.071 204.615 493.674 205.595 494.403 205.462L494.405 205.464ZM480.662 219.903C480.448 219.081 481.179 218.617 481.974 219.048C482.333 219.95 481.406 220.342 480.66 219.905L480.662 219.903ZM485.197 224.825C483.732 225.293 482.396 225.204 481.443 223.396C482.032 222.061 483.675 222.468 484.828 222.022C485.118 222.445 485.301 222.911 485.364 223.394C485.427 223.876 485.37 224.363 485.195 224.827L485.197 224.825ZM486.63 218.89L486.049 217.923C486.426 217.639 486.702 217.855 487.034 217.814C487.062 218.246 487.426 218.822 486.628 218.892L486.63 218.89ZM489.319 238.553C489.477 238.3 489.741 238.102 490.064 237.996C490.386 237.89 490.744 237.883 491.073 237.975C491.892 239.123 490.679 239.863 489.775 239.53L489.319 238.553ZM488.906 249.731C489.828 249.602 490.929 250.952 490.777 251.922C489.704 252.271 489.359 250.877 488.906 249.733V249.731ZM490.926 232.297C490.06 232.36 489.419 231.603 488.636 231.38C488.311 230.28 488.415 229.124 488.935 228.075C490.522 228.248 492.121 228.345 493.723 228.364C493.834 230.193 492.432 231.273 490.926 232.298V232.297ZM496.592 222.787C495.661 223.613 494.325 223.006 494.419 221.801C495.197 221.176 495.618 222.364 496.356 221.962C496.493 221.248 496.5 220.522 496.375 219.807C494.164 218.366 492.275 215.243 489.672 216.091C487.968 213.832 489.222 211.689 486.809 210.203C486.213 210.705 486.202 211.434 485.112 211.286L484.313 210.091C484.933 209.23 485.943 207.955 487.488 208.002C488.096 207.125 487.592 205.789 488.793 205.156C489.931 205.437 489.91 206.423 490.283 207.352C489.611 207.719 489.352 208.84 488.387 208.539C488.898 209.565 489.585 209.268 490.098 210.296C490.85 210.513 491.65 210.354 492.415 210.533C493.491 211.64 494.179 212.964 494.403 214.365C494.561 215.713 495.32 216.967 496.537 217.887C496.75 218.095 496.877 218.353 496.898 218.624C496.918 218.894 496.832 219.163 496.652 219.391C496.968 219.788 497.397 220.117 497.903 220.35C498.409 220.582 498.976 220.711 499.556 220.726C499.795 221.454 499.907 222.207 499.889 222.961C499.851 223.305 499.665 223.628 499.364 223.872C499.063 224.116 498.666 224.265 498.244 224.293C497.722 223.786 497.054 223.761 496.592 222.788V222.787ZM496.922 231.95C497.839 231.476 498.495 232.003 499.281 232.027C499.908 232.956 499.556 233.378 500.251 234.362C503.03 233.933 503.936 237.503 503.758 239.706C501.816 238.859 500.341 237.44 499.633 235.738C498.69 234.955 496.46 233.699 496.922 231.952V231.95ZM498.042 258.484C497.065 259.002 496.709 258.18 496.118 257.864C496.118 257.463 496.23 257.153 496.198 256.756C496.307 256.683 496.436 256.63 496.573 256.601C496.711 256.573 496.854 256.569 496.994 256.59C497.133 256.612 497.265 256.658 497.381 256.725C497.496 256.792 497.592 256.879 497.662 256.98C498.027 257.421 498.163 257.962 498.042 258.485V258.484ZM501.973 244.012C502.235 245.002 500.53 244.777 500.288 243.646C501.059 243.124 501.456 243.748 501.974 244.014L501.973 244.012ZM501.903 259.767C501.651 259.904 501.361 259.987 501.06 260.009C500.759 260.031 500.456 259.99 500.178 259.892C499.901 259.793 499.659 259.639 499.474 259.444C499.288 259.249 499.166 259.019 499.118 258.775C499.125 256.678 502.462 257.042 501.903 259.769V259.767ZM503.086 227.088C502.789 226.291 502.783 225.44 503.069 224.639C501.513 223.626 501.868 223.005 501.229 221.313C504.82 221.199 503.085 224.543 505.367 227.499C504.799 228.42 503.868 227.601 503.087 227.088H503.086ZM504.845 242.593C503.482 239.862 505.659 238.123 507.712 237.899L507.954 238.42C508.305 240.601 506.059 241.307 504.849 242.593H504.845ZM507.764 233.684C508.327 232.772 510.106 232.656 510.576 234.29C509.963 234.725 509.186 234.973 508.375 234.993L507.764 233.684ZM506.626 277.78C506.494 277.262 506.723 276.673 507.453 276.668C507.699 276.922 507.867 277.218 507.946 277.535C508.025 277.851 508.012 278.178 507.908 278.49C507.199 278.759 506.751 278.301 506.633 277.778L506.626 277.78ZM508.853 282.93C508.362 282.953 507.876 282.837 507.477 282.602C507.078 282.367 506.79 282.027 506.661 281.639C507.05 279.606 510.226 281.125 508.86 282.934L508.853 282.93ZM510.198 258.973C510.745 257.629 513.121 257.942 513.327 260.261C512.425 260.946 510.791 260.446 510.208 258.977L510.198 258.973ZM516.141 262.797C515.573 262.187 515.314 261.423 515.417 260.661C517.144 259.912 517.722 262.671 516.151 262.8L516.141 262.797ZM514.514 251.033C514.613 250.948 514.687 250.845 514.729 250.732C514.77 250.62 514.778 250.501 514.753 250.385C516.547 249.865 517.615 251.691 518.557 253.256C517.213 254.219 515.358 253.173 514.523 251.036L514.514 251.033ZM516.974 272.557C516.509 271.114 516.344 269.618 516.487 268.131C517.944 268.131 519.287 268.374 519.918 270.051C518.818 270.799 518.507 272.137 516.984 272.56L516.974 272.557ZM517.833 295.681C517.232 295.167 517.605 294.491 517.824 294.041C519.08 293.883 519.218 295.817 517.844 295.685L517.833 295.681ZM520.17 300.122C521.164 299.967 521.236 302.164 520.926 302.802C519.281 303.082 519.346 301.317 519.7 300.161L520.17 300.122ZM521.799 288.911C521.48 288.415 521.303 287.866 521.282 287.306C521.87 287.35 521.686 286.746 522.392 286.891C522.902 287.664 522.816 288.781 521.81 288.914L521.799 288.911Z" fill="#B7E1D3"/>
<path d="M490.665 211.934C491.039 212.676 490.436 213.013 491.173 213.902C491.638 213.526 492.905 214.444 492.797 213.518C492.027 213.424 491.399 212.283 490.665 211.934Z" fill="#B7E1D3"/>
<path d="M456.15 164.625C455.863 164.348 455.509 164.122 455.11 163.96C454.712 163.799 454.277 163.706 453.833 163.688C454.649 164.253 455.516 165.132 456.15 164.625Z" fill="#B7E1D3"/>
<path d="M543.074 317.153C542.567 317.855 542.347 318.671 542.445 319.482C543.929 319.86 544.528 321.395 546.289 321.431C546.616 319.323 544.522 317.909 543.074 317.153Z" fill="#B7E1D3"/>
<path d="M529.224 270.419C528.24 270.504 528.371 271.565 527.524 272.172C527.991 272.881 528.373 273.626 528.662 274.397C528.818 275.084 529.274 275.702 529.946 276.136C531.952 274.946 531.991 270.194 529.224 270.419Z" fill="#B7E1D3"/>
<path d="M547.613 328.71C548.016 328.294 548.251 327.787 548.287 327.258C548.323 326.728 548.156 326.203 547.811 325.754C547.199 325.028 546.261 324.528 545.201 324.361C544.733 325.965 543.857 327.026 543.818 329.285C544.268 329.41 544.401 329.909 544.986 329.867C545.516 328.795 546.312 328.031 547.613 328.71Z" fill="#B7E1D3"/>
<path d="M453.713 166.45C454.261 167.097 454.65 167.716 455.198 168.36C455.716 167.796 456.769 167.918 457.767 167.231C456.931 166.687 457.389 166.396 456.556 165.85C455.754 166.946 454.509 165.348 453.713 166.45Z" fill="#B7E1D3"/>
<path d="M482.004 182.399C480.958 182.99 483.753 185.578 484.469 184.866C483.642 183.882 482.839 183.589 482.004 182.399Z" fill="#B7E1D3"/>
<path d="M438.315 132.103C438.574 132.98 439.093 133.792 439.828 134.466C440.562 135.14 441.489 135.656 442.526 135.968C444.451 133.88 441.351 131.83 438.464 131.954C437.211 130.619 436.471 130.945 438.315 132.103Z" fill="#B7E1D3"/>
<path d="M479.062 163.792C479.766 164.49 480.504 165.16 481.175 165.876C481.837 165.876 482.515 165.995 483.102 165.385C481.621 163.552 480.272 163.513 479.062 163.792Z" fill="#B7E1D3"/>
<path d="M489.585 186.236C490.723 189.757 493.609 185.408 489.585 186.236V186.236Z" fill="#B7E1D3"/>
<path d="M479.259 157.705C480.129 157.932 480.168 157.069 479.423 156.374C478.866 156.688 478.42 157.034 479.259 157.705Z" fill="#B7E1D3"/>
<path d="M495.385 173.819C494.574 173.143 494.778 172.795 494.256 172.214C493.269 173.164 492.083 171.641 491.099 172.594C492.123 174.982 494.512 175.492 495.385 173.819Z" fill="#B7E1D3"/>
<path d="M498.391 181.027L497.77 180.268C496.934 180.446 497.103 180.983 497.408 181.567L498.391 181.027Z" fill="#B7E1D3"/>
<path d="M497.269 184.184C498.013 185.208 498.745 185.336 499.47 184.803C499.179 183.221 497.066 182.755 497.269 184.184Z" fill="#B7E1D3"/>
<path d="M493.917 185.639C495.203 186.427 496.764 185.941 496.081 184.465C495.09 183.468 492.642 184.041 493.917 185.639Z" fill="#B7E1D3"/>
<path d="M473.434 147.484C473.247 146.27 471.463 144.717 473.538 143.964L472.47 143.066C472.143 144.313 471.555 145.505 470.733 146.59C471.866 147.786 472.683 147.765 473.434 147.484Z" fill="#B7E1D3"/>
<path d="M483.738 148.71C483.708 147.713 481.716 146.474 480.783 146.624C480.52 147.647 482.729 149.322 483.738 148.71Z" fill="#B7E1D3"/>
<path d="M496.169 198.334C497.454 200.018 498.796 200.77 500.251 199.759C498.125 197.142 499.378 195.854 501.292 194.816C501.174 193.574 500.748 192.364 500.038 191.261C497.4 193.238 499.682 197.23 496.169 198.334Z" fill="#B7E1D3"/>
<path d="M447 136.811C447 137.297 447.165 137.775 447.477 138.19C447.905 138.197 449.735 137.396 448.614 136.687C448.162 136.962 447.361 136.258 447 136.811Z" fill="#B7E1D3"/>
<path d="M470.765 149.953C470.791 150.086 470.859 150.212 470.962 150.318C471.066 150.424 471.2 150.506 471.353 150.558C471.507 150.609 471.674 150.628 471.838 150.612C472.003 150.595 472.159 150.545 472.293 150.465C471.738 150.086 471.147 149.536 470.765 149.953Z" fill="#B7E1D3"/>
<path d="M454.219 136.152C454.272 134.9 452.68 133.281 451.147 133.881C449.732 132.968 448.686 131.47 447.136 131.073C446.523 131.707 446.091 132.445 445.869 133.232C447.101 133.284 448.725 134.281 450.245 135.148C451.765 136.015 453.208 136.736 454.219 136.152Z" fill="#B7E1D3"/>
<path d="M457.977 149.152L456.148 147.701C455.328 149.403 452.192 146.621 451.538 146.478C452.964 146.032 454.641 146.444 455.889 145.35C454.893 145.158 453.969 144.769 453.199 144.218C452.43 143.667 451.837 142.97 451.474 142.189C451.002 141.957 450.444 141.872 449.902 141.949C449.36 142.025 448.87 142.259 448.521 142.606C449.097 144.263 449.524 145.886 448.556 147.345C451.787 148.377 454.778 149.852 457.399 151.707C459.779 151.608 461.69 149.476 465.012 153.131L465.87 152.469C462.984 150.513 463.714 148.443 461.215 146.074C460.566 147.099 459.738 148.875 457.977 149.152Z" fill="#B7E1D3"/>
<path d="M463.048 159.067C463.364 159.621 463.623 160.521 464.555 160.712C464.845 160.488 465.03 160.188 465.078 159.864C465.125 159.541 465.032 159.213 464.815 158.94C464.232 159.018 463.564 158.66 463.048 159.067Z" fill="#B7E1D3"/>
<path d="M455.058 151.959C451.869 150.568 449.482 152.279 446.867 152.984C448.161 154.428 450.087 155.243 450.198 156.726C451.019 156.699 451.828 156.893 452.501 157.278C454.24 155.275 456.372 155.024 458.792 155.927C457.737 154.837 456.889 154.641 455.885 153.76C455.507 153.136 456.23 152.713 455.058 151.959Z" fill="#B7E1D3"/>
<path d="M461.465 140.635C459.603 140.922 458.276 138.316 457.974 137.372C456.561 137.86 456.467 138.564 456.431 139.62C458.189 140.672 461.217 142.333 461.465 140.635Z" fill="#B7E1D3"/>
<path d="M413.508 715.786L664.556 615.427L908 1030.88H473.526L413.508 715.786Z" fill="#B7E1D3"/>
<path d="M-490.593 308.304L43.1897 112.399L175.601 315.06L-242.322 494.076L-490.593 308.304Z" fill="#B7E1D3"/>
<path d="M-909.361 1030.88L-632.126 88.5101L-470.823 15.229L-243.168 436.41L298.89 226.995L774.743 1030.88H-909.361Z" fill="#61995C"/>
<path d="M294.677 118.42L400.543 76.0084L650.302 491.417L544.436 533.829L294.677 118.42Z" fill="#61995C"/>
<path d="M552.143 397.804L611.447 374.045L695.47 513.794L636.165 537.553L552.143 397.804Z" fill="#B7E1D3"/>
<path d="M34.0601 35.2656L76.8717 18.1145L137.527 118.999L94.7156 136.15L34.0601 35.2656Z" fill="#61995C"/>
<path d="M183.876 174.887C197.588 174.887 208.703 165.813 208.703 154.621C208.703 143.428 197.588 134.354 183.876 134.354C170.164 134.354 159.049 143.428 159.049 154.621C159.049 165.813 170.164 174.887 183.876 174.887Z" fill="#B7E1D3"/>
</g>
<defs>
<clipPath id="clip0_329_1523">
<rect width="1112.37" height="880.357" fill="white" transform="translate(0 15.6431)"/>
</clipPath>
</defs>
</svg>
